<svg width="201" height="256" viewBox="0 0 201 256" fill="none" xmlns="http://www.w3.org/2000/svg">
<path d="M100.5 5C109.624 5 120.159 9.05261 131.166 17.2285C142.126 25.3698 153.228 37.3658 163.377 52.6006C183.673 83.0664 196 121.315 196 155.429C196 180.777 185.937 205.086 168.027 223.009C150.117 240.932 125.827 251 100.5 251C75.173 251 50.8827 240.932 32.9727 223.009C15.0626 205.086 5.00004 180.777 5 155.429C5 121.305 16.8762 83.743 37.623 52.6006C48.0065 37.0144 59.1055 25.0261 69.9951 16.9785C80.9155 8.90828 91.3427 5 100.5 5Z" fill="black" stroke="black" stroke-width="10"/>
</svg>
