<svg width="256" height="256" viewBox="0 0 256 256" fill="none" xmlns="http://www.w3.org/2000/svg">
<path d="M128.5 5C137.624 5 148.159 9.05261 159.166 17.2285C170.126 25.3698 181.228 37.3658 191.377 52.6006C211.673 83.0664 224 121.315 224 155.429C224 180.777 213.937 205.086 196.027 223.009C178.117 240.932 153.827 251 128.5 251C103.173 251 78.8827 240.932 60.9727 223.009C43.0626 205.086 33 180.777 33 155.429C33 121.305 44.8762 83.743 65.623 52.6006C76.0065 37.0144 87.1055 25.0261 97.9951 16.9785C108.916 8.90828 119.343 5 128.5 5Z" stroke="black" stroke-width="10"/>
</svg>
